<?xml version="1.0" encoding="iso-8859-1"?>
<!-- Generator: Adobe Illustrator 19.0.0, SVG Export Plug-In . SVG Version: 6.00 Build 0)  -->
<svg version="1.1" id="Capa_1" xmlns="http://www.w3.org/2000/svg" xmlns:xlink="http://www.w3.org/1999/xlink" x="0px" y="0px"
	 viewBox="0 0 512 512" style="enable-background:new 0 0 512 512;" xml:space="preserve">
<g>
	<g>
		<path d="M117.554,325.037c-4.148,0-7.509,3.362-7.509,7.508c0,4.855-3.948,8.803-8.803,8.803s-8.803-3.948-8.803-8.803
			c0-4.147-3.361-7.508-7.508-7.508c-14.762,0-7.001,31.328,16.311,31.328C124.542,356.365,132.333,325.037,117.554,325.037z"/>
	</g>
</g>
<g>
	<g>
		<path d="M477.09,368.968h-24.177c-1.602-39.925-23.867-74.604-56.344-93.566c5.088-9.439,5.974-21.084,1.532-31.696
			c-1.592-3.824-5.997-5.626-9.821-4.035c-3.824,1.602-5.626,5.997-4.035,9.831c8.495,20.222-15.045,38.811-32.807,26.25
			c-13.917-9.861-11.672-31.361,4.225-37.993c4.355-1.822,9.15-2.182,13.706-1.041c4.015,1.001,8.099-1.442,9.1-5.466
			c1.011-4.025-1.442-8.099-5.456-9.1c-23.488-5.952-47.409,12.425-45.702,38.574c-11.988,1.314-13.022,2.445-92.144,20.633
			c-4.035,0.941-6.547,4.986-5.606,9.02c0.941,4.035,4.986,6.547,9.02,5.606c79.569-18.221,80.533-19.563,93.045-20.593
			c10.73,20.028,36.93,25.648,55.062,11.673c29.273,16.038,49.556,46.563,51.208,81.903H397.5
			c-28.361,0-44.731,32.119-28.542,54.992h-67.637c16.214-22.955-0.208-54.992-28.512-54.992h-65.965
			c-1.036-10.496,4.586-35.343-13.335-62.481l15.818-3.684c4.035-0.941,6.547-4.976,5.606-9.01c-0.941-4.045-4.976-6.547-9.02-5.616
			l-23.006,5.366c-6.337-6.297-13.716-11.553-21.845-15.488c4.045-23.811-14.635-45.351-38.283-45.351
			c-0.25,0-0.511,0.01-0.771,0.01c-10.872,0.21-20.693,4.986-27.641,12.454c-8.391-5.363-18.384-7.132-27.651-5.496
			c-4.085,0.721-6.808,4.615-6.087,8.7c0.721,4.085,4.615,6.808,8.69,6.087c6.246-1.056,12.266,0.324,17.119,3.484
			c-2.873,7.568-3.207,15.719-1.291,23.196c-8.219,4.835-15.538,11.083-21.604,18.411c-11.738-5.326-17.33-19.496-11.643-31.726
			c1.752-3.754,0.12-8.219-3.634-9.971c-3.764-1.752-8.229-0.13-9.981,3.634c-8.821,18.902-0.991,41.058,16.719,50.597
			c-5.036,9.14-8.37,19.372-9.531,30.254C20.143,343.84,0,364.914,0,390.613c0,26.67,21.695,48.365,48.355,48.365h85.84
			c0.002,0,0.004,0,0.007,0c290.947-0.009,291.895-0.209,342.888-0.19c19.252,0,34.909-15.658,34.909-34.91
			C512,384.626,496.342,368.968,477.09,368.968z M122.299,247.731l0.481-0.01c12.875,0,23.547,10.472,23.797,23.346
			c0,0.209,0.034,0.611-0.02,1.632c-14.882-3.958-31.546-3.688-47.394,1.922C97.259,260.998,107.996,248.007,122.299,247.731z
			 M16.248,399.603c-6.054-21.641,10.777-34.52,10.814-34.62c0.441,0.774,6.356,5.437,6.356,14.459
			c0,15.963-15.859,19.225-17.169,20.163C16.249,399.605,16.248,399.604,16.248,399.603z M156.577,423.69
			c-7.009,0,23.847,0.27-108.223,0.27c-15.457,0-23.518-10.15-24.829-11.124l3.795-1.592c21.072-8.837,27.799-35.34,13.632-53.149
			c1.232-0.208,3.475-0.822,7.401-0.822c6.197,0,11.403-4.865,11.843-11.083c4.253-58.936,79.799-83.765,117.473-36.011
			c19.127,24.226,13.025,48.622,14.156,58.787c0,5.953,0,9.667,0,15.137C191.827,404.615,176.226,421.496,156.577,423.69z
			 M286.353,418.447c-2.571,2.328-5.244,3.287-9.413,5.508c-77.217-0.163-86.915-0.184-87.086-0.184
			c10.462-10.001,16.989-24.087,16.989-39.665v-0.12h65.965C291.526,383.985,299.081,406.927,286.353,418.447z M477.09,423.77
			c-86.395,0-80.239,0.082-82.143-0.17c-9.771-1.251-17.35-9.611-17.35-19.722c0-10.972,8.93-19.893,19.903-19.893
			c25.646,0,54.915,0,79.59,0c10.972,0,19.893,8.92,19.893,19.893S488.063,423.77,477.09,423.77z"/>
	</g>
</g>
<g>
	<g>
		<path d="M207.283,80.2c-1.079-2.653-3.574-4.46-6.431-4.66l-35.68-2.498c-4.135-0.299-7.725,2.83-8.014,6.966
			c-0.289,4.137,2.828,7.725,6.966,8.014l20.418,1.43l-28.727,32.215c-1.907,2.137-2.431,5.174-1.352,7.827s3.574,4.461,6.431,4.661
			l35.68,2.498c0.177,0.013,0.355,0.019,0.532,0.019c3.907,0,7.205-3.026,7.482-6.985c0.289-4.137-2.828-7.725-6.966-8.015
			l-20.418-1.43l28.727-32.216C207.838,85.89,208.362,82.853,207.283,80.2z"/>
	</g>
</g>
<g>
	<g>
		<path d="M150.629,158.256c-0.394-4.128-4.061-7.157-8.187-6.762l-17.398,1.66l20.435-32.363c1.529-2.422,1.548-5.502,0.047-7.942
			c-1.501-2.441-4.27-3.809-7.109-3.542l-32.628,3.113c-4.129,0.394-7.156,4.06-6.762,8.188c0.393,4.128,4.051,7.147,8.187,6.762
			l17.398-1.66l-20.435,32.363c-1.529,2.422-1.548,5.502-0.047,7.942c1.375,2.234,3.804,3.575,6.394,3.575
			c0.238,0,0.477-0.011,0.715-0.033l32.628-3.113C147.996,166.049,151.023,162.384,150.629,158.256z"/>
	</g>
</g>
<g>
	<g>
		<path d="M99.003,188.105c-1.244-3.955-5.456-6.155-9.416-4.91l-11.566,3.639l10.222-27.7c0.992-2.687,0.369-5.704-1.607-7.778
			c-1.975-2.074-4.96-2.844-7.691-1.984l-26.16,8.23c-3.956,1.244-6.153,5.46-4.909,9.416c1.244,3.955,5.456,6.152,9.416,4.909
			l11.565-3.638l-10.222,27.699c-0.992,2.687-0.369,5.704,1.607,7.778c1.44,1.513,3.415,2.331,5.438,2.331
			c0.753,0,1.512-0.113,2.253-0.345l26.161-8.23C98.05,196.277,100.248,192.061,99.003,188.105z"/>
	</g>
</g>
<g>
</g>
<g>
</g>
<g>
</g>
<g>
</g>
<g>
</g>
<g>
</g>
<g>
</g>
<g>
</g>
<g>
</g>
<g>
</g>
<g>
</g>
<g>
</g>
<g>
</g>
<g>
</g>
<g>
</g>
</svg>
